<svg xmlns="http://www.w3.org/2000/svg" viewBox="0 0 264.96 180.65"><defs><style>.cls-1{fill:#365d96;}.cls-2{fill:#fa6541;}</style></defs><title>資產 2</title><g id="圖層_2" data-name="圖層 2"><g id="圖層_2-2" data-name="圖層 2"><path class="cls-1" d="M157.39,112.91a45.16,45.16,0,1,0-49.82,0,72.32,72.32,0,0,0-47.35,67.74h12a60.22,60.22,0,1,1,120.43,0h12A72.32,72.32,0,0,0,157.39,112.91Zm-58-37.64a33.12,33.12,0,1,1,33.12,33.12A33.16,33.16,0,0,1,99.36,75.27Z"/><path class="cls-2" d="M217.6,82.8a45.12,45.12,0,1,0-63.76-60.55,57.14,57.14,0,0,1,10.65,5.64,33.32,33.32,0,0,1,8.08-9,33.06,33.06,0,1,1,20.12,59.37c-1.07,0-2.12-.06-3.16-.16a56.88,56.88,0,0,1-2,12.57c1.72-.15,3.42-.37,5.18-.37a60.58,60.58,0,0,1,60.22,60.22h12A72.32,72.32,0,0,0,217.6,82.8Z"/><path class="cls-2" d="M72.26,90.33c1.76,0,3.46.22,5.18.37a56.88,56.88,0,0,1-2-12.57c-1,.1-2.09.16-3.16.16A33.12,33.12,0,1,1,92.38,18.92a33.32,33.32,0,0,1,8.08,9,57.14,57.14,0,0,1,10.65-5.64A45.13,45.13,0,1,0,47.35,82.8,72.32,72.32,0,0,0,0,150.54H12A60.58,60.58,0,0,1,72.26,90.33Z"/></g></g></svg>