<?xml version="1.0" encoding="UTF-8"?>
<svg width="20px" height="20px" viewBox="0 0 20 20" version="1.1" xmlns="http://www.w3.org/2000/svg" xmlns:xlink="http://www.w3.org/1999/xlink">
    <!-- Generator: Sketch 47.1 (45422) - http://www.bohemiancoding.com/sketch -->
    <title>Group 8</title>
    <desc>Created with Sketch.</desc>
    <defs></defs>
    <g id="Page-1" stroke="none" stroke-width="1" fill="none" fill-rule="evenodd">
        <g id="menu-expand" transform="translate(-712.000000, -98.000000)">
            <g id="Group-8" transform="translate(712.000000, 98.000000)">
                <circle id="Oval-12" fill="#f66649" cx="10" cy="10" r="10"></circle>
                <g id="007__close" transform="translate(5.714286, 5.714286)" fill-rule="nonzero" fill="#FFFFFF">
                    <path d="M7.85714286,8.21428571 C7.78571429,8.21428571 7.64285714,8.21428571 7.57142857,8.14285714 L0.428571429,1 C0.285714286,0.857142857 0.285714286,0.642857143 0.428571429,0.5 C0.571428571,0.357142857 0.785714286,0.357142857 0.928571429,0.5 L8.07142857,7.64285714 C8.21428571,7.78571429 8.21428571,8 8.07142857,8.14285714 C8.07142857,8.21428571 7.92857143,8.21428571 7.85714286,8.21428571 Z" id="Shape"></path>
                    <path d="M0.714285714,8.21428571 C0.642857143,8.21428571 0.5,8.21428571 0.428571429,8.14285714 C0.285714286,8 0.285714286,7.78571429 0.428571429,7.64285714 L7.57142857,0.5 C7.71428571,0.357142857 7.92857143,0.357142857 8.07142857,0.5 C8.21428571,0.642857143 8.21428571,0.857142857 8.07142857,1 L0.928571429,8.14285714 C0.928571429,8.21428571 0.785714286,8.21428571 0.714285714,8.21428571 Z" id="Shape"></path>
                </g>
            </g>
        </g>
    </g>
</svg>