<svg xmlns="http://www.w3.org/2000/svg" viewBox="0 0 185.65 177.11"><defs><style>.cls-1{fill:#f66649;}</style></defs><title>資產 4</title><g id="圖層_2" data-name="圖層 2"><g id="圖層_4" data-name="圖層 4"><path class="cls-1" d="M185.65,141.71v35.4H0v-35.4H150.68c.07-7.49-1.19-16-5.92-22.2-4.18-5.51-10.61-8.6-19.14-9.25A4.13,4.13,0,0,1,122,112.5h-7.13a4.16,4.16,0,1,1,0-8.33H122a4.1,4.1,0,0,1,3.92,2.93c9.45.72,16.65,4.24,21.39,10.5,5.27,7,6.66,16.1,6.59,24.11ZM92.83,77.47A38.73,38.73,0,1,0,54.1,38.73,38.74,38.74,0,0,0,92.83,77.47Zm47.44,45.79c-2.77-3.65-6.87-5.88-12.46-6.74a9.65,9.65,0,0,1-5.83,2h-7.13a9.8,9.8,0,1,1,0-19.6H122a9.67,9.67,0,0,1,7.24,3.25c8.46,1.15,15.3,4.46,20.38,9.84,0-.2,0-.41,0-.61l-1.78-8.87a42.9,42.9,0,0,0-29.91-28.65,36.59,36.59,0,0,1-50.11,0,42.79,42.79,0,0,0-31.87,41.29V136.4H144.79c-.57-5.47-2.1-10-4.52-13.15Zm0,0"/></g></g></svg>