<svg xmlns="http://www.w3.org/2000/svg" viewBox="0 0 200.59 200.59"><defs><style>.cls-1{fill:#365d96;}</style></defs><title>資產 3</title><g id="圖層_2" data-name="圖層 2"><g id="圖層_3" data-name="圖層 3"><path class="cls-1" d="M100.3,0a100.3,100.3,0,1,0,100.3,100.3A100.42,100.42,0,0,0,100.3,0Zm0,185.12a84.85,84.85,0,1,1,84.82-84.82,85,85,0,0,1-84.82,84.82Zm0,0"/><path class="cls-1" d="M108,96.53V44.29a7.71,7.71,0,0,0-15.42,0v56a7.68,7.68,0,0,0,3,6l46,36.31a7.72,7.72,0,1,0,9.59-12.11Zm0,0"/></g></g></svg>