<svg xmlns="http://www.w3.org/2000/svg" viewBox="0 0 85.77 101.72"><defs><style>.cls-1{fill:#7c7c7c;}</style></defs><title>資產 1</title><g id="圖層_2" data-name="圖層 2"><g id="圖層_1-2" data-name="圖層 1"><path class="cls-1" d="M83.31,38.31a8.23,8.23,0,0,0,.92-1l.14-.2a8,8,0,0,0,.69-1.17l.08-.19a7.3,7.3,0,0,0,.45-1.34s0-.07,0-.11a7.09,7.09,0,0,0,0-3.06s0-.08,0-.11a7.37,7.37,0,0,0-.45-1.34l-.08-.19a8,8,0,0,0-.69-1.17l-.14-.2a8,8,0,0,0-.91-1L83.12,27l-.23-.21L53,2.05a9.2,9.2,0,0,0-12.24.59,7.56,7.56,0,0,0,.64,11.28L54.5,24.77H21.87C9.81,24.77,0,33.81,0,44.92V93.73c0,4.41,3.88,8,8.68,8s8.67-3.58,8.67-8V44.92a4.37,4.37,0,0,1,4.53-4.17H54.5L41.44,51.58a7.56,7.56,0,0,0-.64,11.28A9.19,9.19,0,0,0,53,63.46L82.9,38.69l.23-.22Z"/></g></g></svg>